<svg width="122" height="53" viewBox="0 0 122 53" fill="none" xmlns="http://www.w3.org/2000/svg">
<g clip-path="url(#clip0_1_42)">
<path d="M18.7612 4.99115H12.1213V24.2574H6.64491V4.99115H0V0.648682H18.7612V4.99115Z" fill="#004221"/>
<path d="M22.6531 10.0467C23.1008 9.23329 23.7029 8.5151 24.4257 7.93238C25.091 7.41707 25.9115 7.14297 26.7529 7.15499C27.4108 7.12359 28.0605 7.3117 28.5999 7.68975L28.278 11.3836C28.2543 11.5764 28.1588 11.7532 28.0106 11.8787C27.8625 11.9714 27.6901 12.0179 27.5155 12.0124H27.1788L26.7381 11.9728L26.2776 11.9233C26.1241 11.9233 25.9805 11.9233 25.8468 11.9233C25.2086 11.8928 24.5819 12.1011 24.089 12.5076C23.6083 12.9622 23.2302 13.5142 22.9799 14.1267V24.2723H17.959V7.43723H20.9299C21.1398 7.43215 21.3494 7.45378 21.5538 7.5016C21.7083 7.53473 21.8527 7.60433 21.9748 7.70461C22.0912 7.80006 22.18 7.92484 22.2322 8.06607C22.3002 8.24415 22.3516 8.42814 22.3857 8.61569L22.6531 10.0467Z" fill="#004221"/>
<path d="M44.405 16.6716C44.5501 16.6185 44.6725 16.5171 44.7517 16.3845C44.8469 16.2077 44.9073 16.0145 44.9299 15.815C44.9652 15.5093 44.9817 15.2018 44.9794 14.894C44.9963 13.7844 44.8066 12.6812 44.4199 11.6409C44.0786 10.733 43.5487 9.90779 42.8651 9.21963C42.1856 8.56114 41.3738 8.05478 40.4835 7.73418C38.3652 6.99433 36.0509 7.04533 33.9673 7.87777C32.9854 8.29737 32.0979 8.91033 31.3579 9.68012C30.636 10.4397 30.0751 11.3374 29.709 12.3193C29.3218 13.3392 29.127 14.4221 29.1346 15.513C29.1074 16.8491 29.3342 18.1782 29.8031 19.4296C30.21 20.488 30.8341 21.4494 31.6352 22.252C32.4054 23.0086 33.329 23.5911 34.3436 23.9602C35.4047 24.3478 36.5265 24.5423 37.6561 24.5346C38.2605 24.5324 38.8641 24.4927 39.4635 24.4158C40.1067 24.3303 40.7401 24.1827 41.3549 23.9751C42.003 23.7592 42.6231 23.4666 43.2019 23.1036C43.8292 22.7046 44.3948 22.2158 44.8804 21.6528L43.4247 19.8555C43.3222 19.7112 43.185 19.5951 43.0257 19.5181C42.8664 19.441 42.6903 19.4055 42.5136 19.4148C42.2117 19.4141 41.9143 19.4871 41.6471 19.6277L40.7409 20.0981C40.3788 20.2832 40.0031 20.4405 39.617 20.5685C39.1356 20.7143 38.6345 20.7844 38.1315 20.7764C37.152 20.8152 36.195 20.4767 35.4577 19.8307C34.7678 19.1969 34.3419 18.1785 34.1802 16.7756H43.8703C44.0531 16.7709 44.2338 16.7358 44.405 16.6716ZM34.2198 13.8394C34.3238 12.962 34.6975 12.1385 35.2893 11.4825C35.5869 11.2005 35.9389 10.9822 36.3237 10.8409C36.7085 10.6996 37.1181 10.6382 37.5274 10.6605C38.0013 10.648 38.4719 10.7428 38.9039 10.9378C39.2606 11.1055 39.574 11.3528 39.82 11.6607C40.0465 11.9563 40.2146 12.2924 40.3151 12.651C40.4184 13.0319 40.4701 13.4249 40.4686 13.8196L34.2198 13.8394Z" fill="#004221"/>
<path d="M45.9648 47.6086V51.9857H31.7391V28.377H37.2155V47.6086H45.9648Z" fill="#00A953"/>
<path d="M57.68 0.0100098V8.51668C57.1955 8.1038 56.6491 7.76962 56.0609 7.52638C55.3578 7.25942 54.6091 7.13324 53.8574 7.15502C52.8418 7.14365 51.8378 7.37092 50.9262 7.81853C50.0435 8.26183 49.2666 8.89006 48.6485 9.66049C47.9833 10.4886 47.4795 11.4342 47.163 12.4482C46.8165 13.5787 46.6494 14.7567 46.6679 15.939C46.6505 17.166 46.8055 18.3894 47.1283 19.5734C47.3917 20.5403 47.8224 21.4536 48.4009 22.272C48.9051 22.9755 49.5662 23.5519 50.3319 23.9555C51.0803 24.3468 51.9137 24.5475 52.7582 24.5397C53.296 24.5443 53.8325 24.4878 54.3575 24.3714C54.8336 24.2589 55.2954 24.0928 55.734 23.8762C56.1544 23.6659 56.5526 23.4138 56.9224 23.1236C57.2981 22.8201 57.6506 22.4891 57.9771 22.1333L58.3683 23.4158C58.4415 23.676 58.602 23.9032 58.8229 24.0592C59.0438 24.2152 59.3116 24.2904 59.5814 24.2724H62.6959V0.0100098H57.68ZM57.68 19.0832C57.4773 19.3265 57.2589 19.5564 57.0264 19.7714C56.8103 19.9634 56.5728 20.1295 56.3183 20.2666C56.0596 20.3995 55.7851 20.4993 55.5013 20.5637C55.1763 20.6358 54.844 20.6707 54.511 20.6677C54.1354 20.6742 53.7636 20.591 53.4266 20.425C53.0763 20.2437 52.7858 19.9652 52.5899 19.6229C52.3254 19.1622 52.1412 18.6599 52.0452 18.1375C51.9042 17.4017 51.8395 16.6534 51.8521 15.9043C51.8398 15.1135 51.9212 14.324 52.0947 13.5524C52.2206 12.9891 52.4488 12.4537 52.7681 11.9728C53.0161 11.5981 53.3574 11.2944 53.7584 11.0915C54.1584 10.9053 54.5947 10.8106 55.0359 10.8142C55.5112 10.8122 55.9829 10.8978 56.4273 11.0667C56.9038 11.2559 57.327 11.5584 57.6602 11.9481L57.68 19.0832Z" fill="#004221"/>
<path d="M53.8228 30.5805C53.8267 30.9686 53.7438 31.3526 53.5802 31.7045C53.4215 32.0534 53.1961 32.368 52.9167 32.6304C52.6263 32.8981 52.2911 33.1126 51.9264 33.2642C51.5479 33.4197 51.1423 33.4988 50.7331 33.4969C50.3382 33.4992 49.9472 33.4199 49.5844 33.2642C49.2345 33.1099 48.9144 32.8954 48.6386 32.6304C48.3622 32.3687 48.1415 32.0537 47.9899 31.7045C47.8304 31.3514 47.7493 30.9679 47.7523 30.5805C47.7493 30.1851 47.8303 29.7935 47.9899 29.4318C48.1412 29.078 48.3618 28.7581 48.6386 28.491C48.9101 28.2207 49.2312 28.0055 49.5844 27.8572C49.9484 27.7058 50.3389 27.6284 50.7331 27.6294C51.1418 27.6284 51.5469 27.7057 51.9264 27.8572C52.294 28.0032 52.6302 28.2184 52.9167 28.491C53.1965 28.7588 53.4218 29.0783 53.5802 29.4318C53.7438 29.7924 53.8266 30.1845 53.8228 30.5805Z" fill="#00A953"/>
<path d="M53.3029 35.1804H48.2821V51.9809H53.3029V35.1804Z" fill="#00A953"/>
<path d="M74.0943 38.6316V46.9749C74.081 47.3173 74.1801 47.6546 74.3765 47.9354C74.4702 48.062 74.5939 48.1631 74.7366 48.2297C74.8793 48.2963 75.0363 48.3262 75.1935 48.3167C75.3489 48.3218 75.5041 48.3035 75.654 48.2622C75.7664 48.2288 75.8757 48.1857 75.9808 48.1335C76.0699 48.084 76.159 48.0394 76.2383 48.0048C76.3267 47.9642 76.4231 47.9439 76.5205 47.9453C76.6507 47.9389 76.7795 47.9754 76.8869 48.0493C76.9988 48.1434 77.0942 48.2555 77.1691 48.3811L78.6942 50.7627C78.0364 51.2562 77.2951 51.6269 76.5057 51.857C75.6913 52.1012 74.8454 52.2246 73.9952 52.2234C73.2754 52.2351 72.5593 52.1177 71.8809 51.8768C71.3015 51.663 70.7759 51.325 70.341 50.8865C69.916 50.4474 69.593 49.9199 69.3952 49.3417C69.1699 48.6889 69.0594 48.002 69.0685 47.3116V38.6316H63.092V52.0006H58.0662V38.6316L56.967 38.4038C56.6356 38.3401 56.3226 38.2031 56.051 38.0027C55.9343 37.9034 55.8423 37.7784 55.7822 37.6375C55.722 37.4966 55.6954 37.3436 55.7044 37.1907V35.2101H58.0662V34.2544C58.0551 33.363 58.2131 32.4776 58.5317 31.645C58.8248 30.8962 59.2777 30.2203 59.8587 29.6644C60.4673 29.0966 61.1872 28.6615 61.973 28.3869C62.8849 28.0708 63.8452 27.9167 64.8102 27.9314C65.5611 27.9234 66.3089 28.0285 67.0285 28.2433L66.9294 30.6894C66.9269 30.8337 66.8862 30.9749 66.8114 31.0984C66.7366 31.2219 66.6304 31.3234 66.5036 31.3925C66.3786 31.464 66.2433 31.5157 66.1025 31.546C65.9648 31.5798 65.8234 31.5964 65.6816 31.5955C65.2851 31.5911 64.8894 31.6343 64.5032 31.7242C64.1785 31.8018 63.8788 31.9602 63.6318 32.1847C63.3886 32.4302 63.2085 32.7309 63.1069 33.0611C62.9764 33.5063 62.9163 33.969 62.9286 34.4327V35.2249H69.3656L70.3559 31.0904C70.4074 30.8452 70.55 30.6286 70.7549 30.4844C70.9598 30.3401 71.2118 30.2789 71.46 30.3131H74.0844V35.2249H78.2485V38.6316H74.0943Z" fill="#00A953"/>
<path d="M71.9255 10.2099H72.7969C73.1297 10.241 73.4649 10.1874 73.7714 10.0541C74.0779 9.92079 74.3457 9.71207 74.5498 9.4474L79.8825 1.73296C80.1346 1.37049 80.4756 1.07892 80.8728 0.886253C81.3024 0.715195 81.7625 0.634298 82.2246 0.648583H86.9879L79.9865 10.1951C79.5676 10.7866 79.0188 11.2744 78.3822 11.6211C78.7869 11.7685 79.1649 11.9809 79.5013 12.2499C79.865 12.5533 80.1821 12.9087 80.442 13.3046L87.5722 24.2573H82.6752C82.4063 24.2618 82.1377 24.2402 81.873 24.193C81.6737 24.155 81.4804 24.09 81.2986 23.9999C81.1436 23.9153 81.0018 23.8086 80.8778 23.683C80.7514 23.5497 80.6371 23.4056 80.5361 23.2522L75.1935 15.0376C75.0188 14.7541 74.7613 14.5311 74.4557 14.3989C74.0688 14.2591 73.6586 14.1952 73.2475 14.2107H71.9205V24.2722H66.4442V0.648583H71.9205L71.9255 10.2099Z" fill="#004221"/>
<path d="M94.643 44.4001C94.7893 44.3465 94.9119 44.2431 94.9896 44.108C95.0898 43.9353 95.1507 43.7425 95.1678 43.5435C95.2057 43.2364 95.2222 42.927 95.2173 42.6176C95.2368 41.5093 95.0469 40.4073 94.6578 39.3694C94.3165 38.4615 93.7866 37.6363 93.103 36.9481C92.4244 36.2886 91.6123 35.782 90.7214 35.4627C88.6048 34.7232 86.2921 34.7742 84.2102 35.6063C83.2322 36.0175 82.3492 36.6252 81.6158 37.3918C80.8825 38.1583 80.3144 39.0674 79.9469 40.0626C79.5623 41.0815 79.3676 42.1623 79.3726 43.2514C79.3448 44.5896 79.5734 45.9207 80.0459 47.173C80.451 48.2323 81.0754 49.1941 81.878 49.9953C82.649 50.7486 83.5702 51.3307 84.5815 51.7036C85.6426 52.0912 86.7645 52.2857 87.8941 52.278C88.4986 52.2767 89.1023 52.2353 89.7014 52.1542C90.3465 52.0728 90.9819 51.9268 91.5978 51.7185C92.2466 51.5018 92.8667 51.2076 93.4447 50.842C94.0732 50.4464 94.6389 49.9591 95.1233 49.3962L93.6378 47.5939C93.5363 47.4502 93.3998 47.3348 93.2412 47.2586C93.0827 47.1823 92.9073 47.1477 92.7317 47.1581C92.4304 47.1576 92.1334 47.2289 91.8652 47.3661L90.9541 47.8612C90.5933 48.0493 90.2173 48.2067 89.8301 48.3316C89.3497 48.4821 88.848 48.554 88.3447 48.5445C87.364 48.5856 86.4055 48.2448 85.6708 47.5939C84.9776 46.965 84.5518 45.945 84.3884 44.5437H94.0785C94.2739 44.5307 94.4652 44.482 94.643 44.4001ZM84.4577 41.5679C84.5617 40.689 84.9353 39.8639 85.5273 39.206C85.8251 38.9247 86.1772 38.7072 86.5621 38.5667C86.9469 38.4262 87.3564 38.3658 87.7654 38.389C88.2393 38.376 88.7099 38.4708 89.1418 38.6663C89.4982 38.8323 89.8116 39.0779 90.0579 39.3843C90.2876 39.6779 90.456 40.0146 90.5531 40.3746C90.6584 40.7552 90.7116 41.1482 90.7115 41.5431L84.4577 41.5679Z" fill="#00A953"/>
<path d="M99.1092 15.7012C99.1214 16.9189 98.9546 18.1318 98.6141 19.301C98.317 20.3199 97.8111 21.2659 97.1286 22.0788C96.4451 22.8651 95.5871 23.4806 94.6232 23.8762C93.4962 24.3246 92.2905 24.5418 91.0779 24.5149C90.4676 24.5161 89.8577 24.4847 89.2508 24.4208C88.6223 24.3515 87.9988 24.2423 87.3841 24.094L87.6713 20.9053C87.6958 20.6428 87.8177 20.399 88.0129 20.222C88.2468 20.036 88.5417 19.9442 88.8398 19.9645C89.0684 19.9701 89.2958 20 89.5182 20.0536C89.8441 20.1189 90.1761 20.1488 90.5085 20.1427C90.9797 20.1512 91.4489 20.0775 91.8949 19.9249C92.2881 19.78 92.6317 19.5257 92.8852 19.1921C93.1709 18.7925 93.3683 18.3368 93.4645 17.8551C93.6099 17.1852 93.6763 16.5005 93.6626 15.8151V0.648682H99.1389L99.1092 15.7012Z" fill="#004221"/>
<path d="M102.427 37.775C102.878 36.9512 103.487 36.2243 104.219 35.636C104.883 35.1207 105.702 34.8465 106.541 34.8586C107.201 34.8298 107.851 35.0176 108.393 35.3934L108.067 39.0872C108.043 39.28 107.947 39.4568 107.799 39.5823C107.651 39.6747 107.478 39.7196 107.304 39.7111H106.962L106.527 39.6714L106.066 39.6219C105.908 39.6219 105.764 39.6219 105.635 39.6219C104.997 39.5885 104.369 39.7971 103.877 40.2062C103.396 40.6598 103.017 41.2121 102.768 41.8253V52.0007H97.7079V35.1656H100.679C100.887 35.1628 101.095 35.1844 101.298 35.23C101.452 35.2681 101.597 35.3372 101.724 35.433C101.839 35.5316 101.927 35.6576 101.981 35.7994C102.047 35.9782 102.098 36.162 102.135 36.349L102.427 37.775Z" fill="#00A953"/>
<path d="M120.767 38.8593C120.667 39.0356 120.526 39.1851 120.356 39.295C120.186 39.3908 119.992 39.4371 119.797 39.4287C119.551 39.4254 119.309 39.3733 119.084 39.2752L118.316 38.9385C118.012 38.8112 117.701 38.7005 117.385 38.6068C117 38.501 116.601 38.4493 116.202 38.4533C115.68 38.4155 115.16 38.5438 114.716 38.8197C114.559 38.9312 114.431 39.08 114.345 39.2528C114.258 39.4255 114.216 39.6169 114.221 39.81C114.213 39.9591 114.237 40.1082 114.293 40.2468C114.349 40.3854 114.434 40.5101 114.543 40.6121C114.803 40.8421 115.101 41.0248 115.424 41.1518C115.831 41.3248 116.248 41.4736 116.672 41.5975C117.138 41.7361 117.613 41.8946 118.098 42.0679C118.585 42.242 119.062 42.4454 119.524 42.6769C119.979 42.9008 120.4 43.1893 120.772 43.5335C121.144 43.884 121.444 44.3047 121.653 44.7714C121.888 45.3251 122.002 45.9229 121.985 46.5242C121.995 47.315 121.84 48.0992 121.53 48.8266C121.225 49.5269 120.762 50.1471 120.178 50.6389C119.524 51.177 118.77 51.5793 117.96 51.8223C116.974 52.1189 115.948 52.2609 114.919 52.2432C114.344 52.2428 113.771 52.1881 113.206 52.0798C112.642 51.9743 112.086 51.8287 111.542 51.6441C111.028 51.472 110.53 51.2515 110.057 50.9855C109.638 50.7576 109.246 50.4836 108.888 50.1685L110.057 48.3216C110.18 48.0983 110.364 47.9143 110.588 47.7908C110.811 47.6673 111.065 47.6093 111.32 47.6234C111.595 47.6183 111.867 47.6867 112.107 47.8215L112.86 48.2424C113.163 48.4083 113.479 48.549 113.805 48.6632C114.248 48.8039 114.712 48.8692 115.177 48.8564C115.511 48.8638 115.844 48.8238 116.167 48.7375C116.405 48.6735 116.626 48.5587 116.816 48.4008C116.968 48.2748 117.09 48.1156 117.172 47.9354C117.249 47.7675 117.288 47.585 117.286 47.4006C117.291 47.2464 117.264 47.0929 117.205 46.9503C117.146 46.8077 117.057 46.6793 116.944 46.5737C116.687 46.3332 116.386 46.1434 116.058 46.0142C115.648 45.8431 115.228 45.696 114.801 45.5735C114.305 45.4398 113.855 45.2863 113.365 45.113C112.874 44.9371 112.396 44.7287 111.934 44.4891C111.468 44.2505 111.044 43.9396 110.676 43.5682C110.295 43.171 109.993 42.7057 109.785 42.1966C109.303 40.9048 109.33 39.4787 109.859 38.2057C110.14 37.5558 110.563 36.9772 111.097 36.5123C111.703 35.9903 112.409 35.5962 113.171 35.3536C114.113 35.0491 115.099 34.9035 116.088 34.9228C116.678 34.9213 117.266 34.9761 117.846 35.0862C118.39 35.1874 118.923 35.3382 119.44 35.5368C119.915 35.7221 120.371 35.9526 120.802 36.2251C121.192 36.4754 121.556 36.7658 121.886 37.0916L120.767 38.8593Z" fill="#00A953"/>
</g>
<defs>
<clipPath id="clip0_1_42">
<rect width="122" height="52.2433" fill="white"/>
</clipPath>
</defs>
</svg>
