<svg width="89" height="39" viewBox="0 0 89 39" fill="none" xmlns="http://www.w3.org/2000/svg">
<g clip-path="url(#clip0_44_798)">
<path d="M13.6865 3.64101H8.84257V17.6959H4.84752V3.64101H0V0.473145H13.6865V3.64101Z" fill="#004221"/>
<path d="M16.5254 7.32901C16.852 6.73564 17.2913 6.21172 17.8186 5.78662C18.3039 5.41069 18.9025 5.21074 19.5163 5.21951C19.9962 5.1966 20.4702 5.33383 20.8636 5.60962L20.6288 8.30429C20.6116 8.44494 20.5419 8.57391 20.4338 8.66551C20.3257 8.73311 20.2 8.76706 20.0726 8.76304H19.827L19.5055 8.73414L19.1695 8.69802C19.0575 8.69802 18.9528 8.69802 18.8553 8.69802C18.3897 8.67575 17.9325 8.82771 17.5729 9.12426C17.2222 9.45592 16.9464 9.85862 16.7638 10.3054V17.7067H13.1011V5.4254H15.2684C15.4215 5.4217 15.5744 5.43748 15.7235 5.47236C15.8362 5.49653 15.9415 5.54731 16.0306 5.62046C16.1155 5.69009 16.1803 5.78112 16.2184 5.88415C16.268 6.01406 16.3055 6.14828 16.3304 6.2851L16.5254 7.32901Z" fill="#004221"/>
<path d="M32.3939 12.162C32.4997 12.1233 32.589 12.0493 32.6468 11.9525C32.7162 11.8236 32.7604 11.6826 32.7768 11.5371C32.8026 11.3141 32.8146 11.0897 32.813 10.8653C32.8253 10.0557 32.6868 9.25099 32.4048 8.49208C32.1558 7.82977 31.7692 7.22775 31.2705 6.72574C30.7748 6.24536 30.1826 5.87597 29.5331 5.64209C27.9878 5.10237 26.2995 5.13957 24.7795 5.74684C24.0632 6.05294 23.4158 6.5001 22.8759 7.06167C22.3493 7.6158 21.9402 8.27068 21.6731 8.98695C21.3906 9.73098 21.2485 10.5209 21.254 11.3168C21.2342 12.2915 21.3997 13.2611 21.7417 14.174C22.0385 14.9461 22.4938 15.6475 23.0782 16.2329C23.6401 16.7849 24.3139 17.2099 25.054 17.4791C25.8281 17.7619 26.6465 17.9038 27.4706 17.8981C27.9114 17.8965 28.3517 17.8676 28.789 17.8114C29.2582 17.7491 29.7203 17.6414 30.1688 17.49C30.6416 17.3324 31.094 17.119 31.5162 16.8542C31.9739 16.5632 32.3864 16.2066 32.7407 15.7959L31.6787 14.4847C31.604 14.3794 31.5039 14.2947 31.3877 14.2385C31.2715 14.1823 31.143 14.1564 31.0141 14.1632C30.7939 14.1627 30.5769 14.216 30.382 14.3185L29.7209 14.6617C29.4567 14.7967 29.1826 14.9114 28.901 15.0048C28.5498 15.1112 28.1842 15.1624 27.8173 15.1565C27.1028 15.1848 26.4046 14.9379 25.8668 14.4666C25.3635 14.0042 25.0528 13.2613 24.9348 12.2379H32.0038C32.1372 12.2345 32.269 12.2088 32.3939 12.162ZM24.9637 10.0959C25.0396 9.45581 25.3122 8.85505 25.7439 8.37649C25.961 8.17081 26.2178 8.01156 26.4985 7.90846C26.7792 7.80537 27.078 7.76059 27.3766 7.77687C27.7223 7.76774 28.0656 7.83689 28.3808 7.97916C28.641 8.10149 28.8696 8.28191 29.0491 8.50653C29.2143 8.72216 29.3369 8.96736 29.4103 9.22896C29.4856 9.50681 29.5233 9.79354 29.5223 10.0814L24.9637 10.0959Z" fill="#004221"/>
<path d="M33.5315 34.7308V37.924H23.1538V20.7012H27.1489V34.7308H33.5315Z" fill="white"/>
<path d="M42.0779 0.00732422V6.21301C41.7245 5.91181 41.3259 5.66802 40.8967 5.49058C40.3838 5.29583 39.8377 5.20378 39.2893 5.21967C38.5484 5.21137 37.816 5.37717 37.1509 5.7037C36.507 6.02709 35.9403 6.4854 35.4893 7.04742C35.0041 7.65157 34.6365 8.34138 34.4057 9.08107C34.1529 9.90582 34.031 10.7651 34.0445 11.6276C34.0318 12.5228 34.1449 13.4153 34.3804 14.279C34.5725 14.9843 34.8867 15.6506 35.3087 16.2476C35.6765 16.7609 36.1588 17.1814 36.7174 17.4757C37.2634 17.7612 37.8713 17.9076 38.4874 17.902C38.8797 17.9053 39.2711 17.8641 39.6541 17.7791C40.0014 17.6971 40.3383 17.5759 40.6583 17.4179C40.965 17.2645 41.2554 17.0806 41.5252 16.8689C41.7993 16.6475 42.0564 16.406 42.2946 16.1464L42.58 17.082C42.6334 17.2719 42.7505 17.4376 42.9117 17.5514C43.0728 17.6652 43.2681 17.7201 43.465 17.7069H45.737V0.00732422H42.0779ZM42.0779 13.9214C41.93 14.0989 41.7707 14.2666 41.6011 14.4235C41.4435 14.5635 41.2702 14.6847 41.0846 14.7847C40.8958 14.8816 40.6955 14.9545 40.4885 15.0014C40.2514 15.054 40.009 15.0795 39.7661 15.0773C39.4921 15.082 39.2209 15.0213 38.975 14.9003C38.7195 14.768 38.5075 14.5648 38.3646 14.3151C38.1717 13.979 38.0373 13.6126 37.9673 13.2314C37.8644 12.6947 37.8172 12.1488 37.8264 11.6024C37.8174 11.0254 37.8768 10.4495 38.0034 9.88658C38.0952 9.47565 38.2617 9.08508 38.4946 8.7343C38.6756 8.46093 38.9245 8.23935 39.2171 8.09134C39.5088 7.95556 39.8272 7.88646 40.149 7.88906C40.4958 7.88764 40.8399 7.95008 41.164 8.07328C41.5116 8.21131 41.8203 8.432 42.0634 8.71624L42.0779 13.9214Z" fill="#004221"/>
<path d="M39.264 22.3086C39.2668 22.5917 39.2064 22.8719 39.087 23.1286C38.9712 23.3831 38.8068 23.6126 38.603 23.8041C38.3911 23.9993 38.1466 24.1558 37.8806 24.2664C37.6044 24.3798 37.3086 24.4375 37.01 24.4362C36.722 24.4378 36.4367 24.38 36.172 24.2664C35.9168 24.1538 35.6832 23.9974 35.4821 23.8041C35.2804 23.6131 35.1194 23.3833 35.0089 23.1286C34.8925 22.871 34.8333 22.5913 34.8355 22.3086C34.8333 22.0202 34.8924 21.7345 35.0089 21.4706C35.1192 21.2125 35.2801 20.9792 35.4821 20.7843C35.6801 20.5871 35.9144 20.4301 36.172 20.3219C36.4376 20.2115 36.7224 20.155 37.01 20.1558C37.3082 20.155 37.6037 20.2114 37.8806 20.3219C38.1487 20.4285 38.394 20.5854 38.603 20.7843C38.8071 20.9797 38.9715 21.2127 39.087 21.4706C39.2064 21.7337 39.2668 22.0197 39.264 22.3086Z" fill="white"/>
<path d="M38.8849 25.6643H35.2222V37.9204H38.8849V25.6643Z" fill="white"/>
<path d="M54.0526 28.1821V34.2686C54.0429 34.5184 54.1151 34.7645 54.2584 34.9693C54.3268 35.0616 54.4171 35.1354 54.5211 35.184C54.6252 35.2325 54.7398 35.2544 54.8544 35.2475C54.9678 35.2512 55.081 35.2378 55.1904 35.2077C55.2724 35.1833 55.3521 35.1519 55.4288 35.1138C55.4938 35.0777 55.5588 35.0452 55.6166 35.0199C55.6812 34.9903 55.7515 34.9755 55.8225 34.9765C55.9175 34.9718 56.0114 34.9985 56.0898 35.0524C56.1714 35.121 56.241 35.2028 56.2957 35.2944L57.4082 37.0319C56.9284 37.3919 56.3876 37.6623 55.8117 37.8301C55.2176 38.0083 54.6005 38.0983 53.9803 38.0974C53.4552 38.106 52.9328 38.0203 52.4379 37.8446C52.0152 37.6886 51.6318 37.442 51.3145 37.1222C51.0044 36.8018 50.7689 36.417 50.6246 35.9952C50.4602 35.519 50.3796 35.0179 50.3862 34.5142V28.1821H46.0263V37.9349H42.3599V28.1821L41.5581 28.0159C41.3163 27.9694 41.088 27.8695 40.8898 27.7233C40.8047 27.6509 40.7376 27.5597 40.6937 27.4569C40.6499 27.3541 40.6304 27.2425 40.637 27.1309V25.6861H42.3599V24.9889C42.3519 24.3386 42.4671 23.6927 42.6995 23.0853C42.9133 22.539 43.2437 22.046 43.6676 21.6404C44.1115 21.2262 44.6368 20.9088 45.2099 20.7085C45.8752 20.4779 46.5757 20.3655 47.2798 20.3762C47.8275 20.3703 48.3731 20.4471 48.898 20.6038L48.8257 22.3882C48.8239 22.4935 48.7942 22.5964 48.7396 22.6865C48.685 22.7766 48.6076 22.8507 48.5151 22.9011C48.4239 22.9532 48.3252 22.991 48.2225 23.0131C48.1221 23.0377 48.0189 23.0499 47.9155 23.0492C47.6262 23.0459 47.3375 23.0775 47.0558 23.1431C46.8189 23.1997 46.6003 23.3153 46.4201 23.479C46.2427 23.6581 46.1113 23.8775 46.0371 24.1184C45.942 24.4431 45.8981 24.7807 45.9071 25.119V25.6969H50.6029L51.3254 22.6807C51.363 22.5018 51.467 22.3438 51.6165 22.2386C51.7659 22.1334 51.9498 22.0887 52.1309 22.1136H54.0453V25.6969H57.0831V28.1821H54.0526Z" fill="white"/>
<path d="M52.4704 7.44818H53.1061C53.3488 7.47088 53.5934 7.43178 53.817 7.33451C54.0406 7.23725 54.2359 7.08499 54.3848 6.8919L58.2751 1.26416C58.459 0.999735 58.7077 0.787032 58.9975 0.64648C59.3109 0.521693 59.6465 0.462678 59.9836 0.473098H63.4585L58.3509 7.43734C58.0453 7.86889 57.645 8.22475 57.1806 8.47764C57.4758 8.58516 57.7516 8.74011 57.9969 8.93639C58.2623 9.15768 58.4936 9.41694 58.6833 9.70578L63.8848 17.6959H60.3123C60.1162 17.6991 59.9203 17.6834 59.7272 17.6489C59.5818 17.6212 59.4408 17.5738 59.3082 17.508C59.1951 17.4464 59.0916 17.3685 59.0011 17.2769C58.9089 17.1797 58.8255 17.0745 58.7519 16.9626L54.8544 10.97C54.727 10.7632 54.5391 10.6005 54.3162 10.5041C54.0339 10.4021 53.7347 10.3555 53.4348 10.3668H52.4667V17.7067H48.4717V0.473098H52.4667L52.4704 7.44818Z" fill="#004221"/>
<path d="M69.0429 32.3901C69.1496 32.351 69.2391 32.2755 69.2958 32.177C69.3689 32.051 69.4133 31.9104 69.4258 31.7652C69.4534 31.5412 69.4655 31.3155 69.4619 31.0897C69.4761 30.2812 69.3376 29.4773 69.0537 28.7202C68.8047 28.0579 68.4182 27.4558 67.9195 26.9538C67.4244 26.4727 66.832 26.1032 66.1821 25.8702C64.638 25.3307 62.9509 25.3679 61.4321 25.9749C60.7187 26.2749 60.0745 26.7182 59.5395 27.2775C59.0045 27.8367 58.5901 28.4999 58.322 29.2259C58.0414 29.9692 57.8994 30.7576 57.903 31.5521C57.8828 32.5283 58.0495 33.4994 58.3943 34.4129C58.6898 35.1857 59.1452 35.8873 59.7308 36.4719C60.2932 37.0214 60.9652 37.446 61.703 37.7181C62.4771 38.0008 63.2955 38.1427 64.1196 38.1371C64.5606 38.1361 65.001 38.1059 65.438 38.0468C65.9086 37.9874 66.3721 37.8809 66.8215 37.7289C67.2947 37.5709 67.7471 37.3562 68.1688 37.0895C68.6272 36.8009 69.04 36.4454 69.3933 36.0348L68.3097 34.72C68.2356 34.6152 68.136 34.531 68.0203 34.4754C67.9047 34.4197 67.7767 34.3945 67.6486 34.4021C67.4288 34.4017 67.2121 34.4537 67.0165 34.5538L66.3519 34.915C66.0887 35.0522 65.8144 35.167 65.5319 35.2582C65.1814 35.368 64.8155 35.4204 64.4482 35.4135C63.7328 35.4434 63.0336 35.1948 62.4977 34.72C61.992 34.2612 61.6813 33.5171 61.5621 32.4949H68.6311C68.7737 32.4854 68.9132 32.4499 69.0429 32.3901ZM61.6127 30.324C61.6885 29.6828 61.9611 29.0809 62.3929 28.601C62.6102 28.3958 62.8671 28.2371 63.1478 28.1346C63.4286 28.0321 63.7273 27.988 64.0256 28.005C64.3714 27.9954 64.7147 28.0646 65.0298 28.2072C65.2897 28.3283 65.5184 28.5075 65.6981 28.731C65.8657 28.9452 65.9885 29.1909 66.0593 29.4534C66.1361 29.7311 66.175 30.0178 66.1749 30.3059L61.6127 30.324Z" fill="white"/>
<path d="M72.3011 11.4541C72.31 12.3424 72.1883 13.2272 71.9399 14.0802C71.7232 14.8235 71.3541 15.5136 70.8563 16.1066C70.3576 16.6802 69.7317 17.1292 69.0285 17.4178C68.2064 17.7449 67.3268 17.9034 66.4422 17.8838C65.997 17.8846 65.5521 17.8617 65.1093 17.8151C64.6508 17.7645 64.196 17.6849 63.7476 17.5767L63.957 15.2505C63.9749 15.059 64.0639 14.8812 64.2063 14.752C64.3769 14.6164 64.592 14.5494 64.8095 14.5642C64.9763 14.5683 65.1422 14.5901 65.3044 14.6292C65.5421 14.6768 65.7844 14.6986 66.0268 14.6942C66.3706 14.7004 66.7129 14.6466 67.0382 14.5353C67.3251 14.4296 67.5757 14.2441 67.7607 14.0007C67.969 13.7092 68.1131 13.3768 68.1833 13.0254C68.2893 12.5367 68.3378 12.0372 68.3278 11.5372V0.473145H72.3228L72.3011 11.4541Z" fill="#004221"/>
<path d="M74.7212 27.5572C75.0503 26.9562 75.4947 26.4259 76.0288 25.9967C76.5127 25.6208 77.1102 25.4208 77.7229 25.4296C78.2037 25.4086 78.6782 25.5456 79.0738 25.8197L78.8355 28.5144C78.8182 28.655 78.7485 28.784 78.6404 28.8756C78.5324 28.943 78.4063 28.9757 78.2792 28.9695H78.0299L77.7121 28.9406L77.3761 28.9045C77.2605 28.9045 77.1558 28.9045 77.0619 28.9045C76.596 28.8801 76.1381 29.0323 75.7795 29.3307C75.428 29.6617 75.152 30.0645 74.9704 30.5119V37.9349H71.2788V25.6535H73.4461C73.5979 25.6515 73.7495 25.6673 73.8976 25.7005C74.0101 25.7283 74.1158 25.7787 74.2083 25.8486C74.2923 25.9206 74.3568 26.0125 74.3961 26.1159C74.4441 26.2463 74.4815 26.3804 74.5081 26.5168L74.7212 27.5572Z" fill="white"/>
<path d="M88.1006 28.3482C88.0279 28.4769 87.925 28.586 87.8008 28.6661C87.6765 28.736 87.5351 28.7698 87.3927 28.7636C87.2135 28.7613 87.0367 28.7232 86.8725 28.6517L86.3126 28.406C86.0908 28.3132 85.8641 28.2324 85.6335 28.164C85.3523 28.0869 85.0618 28.0492 84.7702 28.052C84.3898 28.0245 84.0105 28.1181 83.6866 28.3194C83.5716 28.4007 83.4784 28.5093 83.4154 28.6353C83.3524 28.7613 83.3215 28.9009 83.3254 29.0418C83.3193 29.1506 83.3371 29.2594 83.3777 29.3605C83.4183 29.4616 83.4806 29.5525 83.5602 29.627C83.7498 29.7947 83.9675 29.928 84.2031 30.0207C84.4999 30.1468 84.8039 30.2554 85.1134 30.3458C85.4529 30.4469 85.7997 30.5625 86.1537 30.6889C86.5091 30.816 86.8565 30.9644 87.194 31.1332C87.526 31.2966 87.8325 31.5071 88.1042 31.7581C88.376 32.0138 88.5945 32.3207 88.7472 32.6612C88.9187 33.0651 89.0012 33.5012 88.9892 33.9399C88.9964 34.5168 88.8832 35.0888 88.6569 35.6195C88.4346 36.1304 88.0971 36.5828 87.6708 36.9416C87.1942 37.3341 86.644 37.6276 86.0526 37.8049C85.3336 38.0212 84.5854 38.1248 83.8347 38.1119C83.4153 38.1116 82.9968 38.0717 82.5849 37.9927C82.1733 37.9158 81.7676 37.8096 81.3712 37.6748C80.9956 37.5493 80.6327 37.3884 80.2875 37.1944C79.982 37.0282 79.6961 36.8283 79.4351 36.5984L80.2875 35.2511C80.3776 35.0882 80.5119 34.9539 80.6748 34.8638C80.8377 34.7737 81.0227 34.7314 81.2086 34.7418C81.4095 34.738 81.6078 34.7879 81.783 34.8863L82.332 35.1933C82.5532 35.3143 82.784 35.417 83.022 35.5003C83.3452 35.6029 83.6835 35.6506 84.0225 35.6412C84.2662 35.6466 84.5095 35.6174 84.745 35.5545C84.9186 35.5078 85.08 35.424 85.2181 35.3089C85.3295 35.2169 85.4185 35.1008 85.4782 34.9693C85.534 34.8469 85.5623 34.7138 85.5613 34.5792C85.5651 34.4667 85.5448 34.3547 85.5018 34.2507C85.4588 34.1467 85.3941 34.053 85.312 33.976C85.1241 33.8005 84.9047 33.6621 84.6655 33.5678C84.3661 33.443 84.0598 33.3357 83.748 33.2463C83.3868 33.1488 83.0581 33.0368 82.7005 32.9104C82.3428 32.7821 81.994 32.63 81.6565 32.4553C81.3172 32.2812 81.0075 32.0544 80.739 31.7834C80.4614 31.4937 80.2408 31.1543 80.0889 30.7828C79.7379 29.8405 79.7572 28.8001 80.1431 27.8714C80.348 27.3974 80.6566 26.9752 81.0461 26.6361C81.4885 26.2553 82.0033 25.9678 82.5596 25.7908C83.2464 25.5687 83.9654 25.4625 84.6872 25.4766C85.1174 25.4755 85.5468 25.5154 85.9695 25.5958C86.3664 25.6696 86.7557 25.7796 87.1326 25.9245C87.479 26.0596 87.8117 26.2278 88.1259 26.4266C88.4109 26.6092 88.676 26.821 88.917 27.0587L88.1006 28.3482Z" fill="white"/>
</g>
<defs>
<clipPath id="clip0_44_798">
<rect width="89" height="38.1119" fill="white"/>
</clipPath>
</defs>
</svg>
